<svg xmlns="http://www.w3.org/2000/svg" viewBox="0 0 64 64" role="img" aria-label="miscite">
  <defs>
    <linearGradient id="g" x1="0" y1="0" x2="1" y2="1">
      <stop offset="0" stop-color="#990000" />
      <stop offset="1" stop-color="#f41c40" />
    </linearGradient>
  </defs>
  <rect width="64" height="64" rx="14" fill="#f8efe2" />
  <path
    fill="#072332"
    d="M18 44V22.7c0-.9.7-1.7 1.7-1.7h5c.8 0 1.5.6 1.6 1.4l.4 2.5c2-2.8 5-4.2 8.7-4.2 3.8 0 6.7 1.6 8.3 4.7 2.1-3.1 5.3-4.7 9.2-4.7 6.2 0 10.1 4.1 10.1 11V44c0 .9-.7 1.7-1.7 1.7h-5.7c-.9 0-1.7-.7-1.7-1.7V33.2c0-3.6-1.7-5.6-4.8-5.6-3.2 0-5.1 2.2-5.1 6V44c0 .9-.7 1.7-1.7 1.7h-5.7c-.9 0-1.7-.7-1.7-1.7V33c0-3.4-1.6-5.4-4.7-5.4-3.2 0-5.2 2.2-5.2 5.9V44c0 .9-.7 1.7-1.7 1.7h-5.7c-.9 0-1.7-.7-1.7-1.7Z"
  />
  <path d="M14 45 L52 19" stroke="url(#g)" stroke-width="5" stroke-linecap="round" />
</svg>
